<mxfile host="app.diagrams.net" agent="Mozilla/5.0 (Windows NT 10.0; Win64; x64; rv:131.0) Gecko/20100101 Firefox/131.0" version="24.7.17">
  <diagram id="2RAkf9iS2bYrb-5zrusB" name="Page-1">
    <mxGraphModel dx="1105" dy="529" grid="1" gridSize="10" guides="1" tooltips="1" connect="1" arrows="1" fold="1" page="1" pageScale="1" pageWidth="850" pageHeight="1100" math="0" shadow="0">
      <root>
        <mxCell id="0" />
        <mxCell id="1" parent="0" />
        <mxCell id="EpLoNu7SxfJ4iQwhgqlz-1" value="&lt;h1&gt;Assurance Case for File Sharing&lt;br&gt;&lt;/h1&gt;" style="text;html=1;strokeColor=none;fillColor=none;spacing=5;spacingTop=-20;whiteSpace=wrap;overflow=hidden;rounded=0;" parent="1" vertex="1">
          <mxGeometry x="20" y="20" width="190" height="150" as="geometry" />
        </mxCell>
        <mxCell id="EpLoNu7SxfJ4iQwhgqlz-4" style="edgeStyle=orthogonalEdgeStyle;rounded=0;orthogonalLoop=1;jettySize=auto;html=1;exitX=1;exitY=0.5;exitDx=0;exitDy=0;entryX=0;entryY=0.5;entryDx=0;entryDy=0;endArrow=block;endFill=1;" parent="1" source="EpLoNu7SxfJ4iQwhgqlz-2" target="EpLoNu7SxfJ4iQwhgqlz-3" edge="1">
          <mxGeometry relative="1" as="geometry" />
        </mxCell>
        <mxCell id="EpLoNu7SxfJ4iQwhgqlz-6" value="" style="edgeStyle=orthogonalEdgeStyle;rounded=0;orthogonalLoop=1;jettySize=auto;html=1;endArrow=block;endFill=1;curved=1;" parent="1" source="EpLoNu7SxfJ4iQwhgqlz-2" target="EpLoNu7SxfJ4iQwhgqlz-5" edge="1">
          <mxGeometry relative="1" as="geometry" />
        </mxCell>
        <mxCell id="EpLoNu7SxfJ4iQwhgqlz-2" value="&lt;b&gt;Top-Claim C1:&lt;br&gt;&lt;/b&gt;Seafile minimizes unauthorized disclosure of files during collaborative activities" style="rounded=0;whiteSpace=wrap;html=1;" parent="1" vertex="1">
          <mxGeometry x="235" y="30" width="240" height="70" as="geometry" />
        </mxCell>
        <mxCell id="EpLoNu7SxfJ4iQwhgqlz-3" value="Context: CT1&lt;br&gt;Seafile supports file luck" style="rounded=1;whiteSpace=wrap;html=1;arcSize=30;" parent="1" vertex="1">
          <mxGeometry x="570" y="30" width="135" height="70" as="geometry" />
        </mxCell>
        <mxCell id="EpLoNu7SxfJ4iQwhgqlz-9" style="edgeStyle=orthogonalEdgeStyle;curved=1;rounded=0;orthogonalLoop=1;jettySize=auto;html=1;endArrow=block;endFill=1;" parent="1" source="EpLoNu7SxfJ4iQwhgqlz-5" target="EpLoNu7SxfJ4iQwhgqlz-8" edge="1">
          <mxGeometry relative="1" as="geometry" />
        </mxCell>
        <mxCell id="EpLoNu7SxfJ4iQwhgqlz-5" value="Rebuttal R1: Unless there is no proper access control" style="shape=note;whiteSpace=wrap;html=1;backgroundOutline=1;darkOpacity=0.05;size=17;fillColor=#FFF2CC;" parent="1" vertex="1">
          <mxGeometry x="230" y="150" width="250" height="60" as="geometry" />
        </mxCell>
        <mxCell id="EpLoNu7SxfJ4iQwhgqlz-12" style="edgeStyle=orthogonalEdgeStyle;curved=1;rounded=0;orthogonalLoop=1;jettySize=auto;html=1;exitX=0.5;exitY=1;exitDx=0;exitDy=0;entryX=0.5;entryY=0;entryDx=0;entryDy=0;entryPerimeter=0;endArrow=block;endFill=1;" parent="1" source="EpLoNu7SxfJ4iQwhgqlz-8" target="EpLoNu7SxfJ4iQwhgqlz-10" edge="1">
          <mxGeometry relative="1" as="geometry" />
        </mxCell>
        <mxCell id="EpLoNu7SxfJ4iQwhgqlz-13" style="edgeStyle=orthogonalEdgeStyle;curved=1;rounded=0;orthogonalLoop=1;jettySize=auto;html=1;exitX=0.5;exitY=1;exitDx=0;exitDy=0;entryX=0.5;entryY=0;entryDx=0;entryDy=0;entryPerimeter=0;endArrow=block;endFill=1;" parent="1" source="EpLoNu7SxfJ4iQwhgqlz-8" target="EpLoNu7SxfJ4iQwhgqlz-11" edge="1">
          <mxGeometry relative="1" as="geometry" />
        </mxCell>
        <mxCell id="EpLoNu7SxfJ4iQwhgqlz-8" value="&lt;b&gt;Sub-Claim C2:&lt;br&gt;&lt;/b&gt;File access requires user Authentication" style="rounded=0;whiteSpace=wrap;html=1;" parent="1" vertex="1">
          <mxGeometry x="340" y="250" width="135" height="60" as="geometry" />
        </mxCell>
        <mxCell id="EpLoNu7SxfJ4iQwhgqlz-16" style="edgeStyle=orthogonalEdgeStyle;curved=1;rounded=0;orthogonalLoop=1;jettySize=auto;html=1;exitX=0.5;exitY=1;exitDx=0;exitDy=0;exitPerimeter=0;entryX=0.5;entryY=0;entryDx=0;entryDy=0;endArrow=block;endFill=1;" parent="1" source="EpLoNu7SxfJ4iQwhgqlz-10" target="EpLoNu7SxfJ4iQwhgqlz-14" edge="1">
          <mxGeometry relative="1" as="geometry" />
        </mxCell>
        <mxCell id="EpLoNu7SxfJ4iQwhgqlz-10" value="Rebuttal R2: Unless The user&#39;s credentials are stored in plain text." style="shape=note;whiteSpace=wrap;html=1;backgroundOutline=1;darkOpacity=0.05;size=17;fillColor=#FFF2CC;" parent="1" vertex="1">
          <mxGeometry x="200" y="360" width="195" height="60" as="geometry" />
        </mxCell>
        <mxCell id="EpLoNu7SxfJ4iQwhgqlz-17" style="edgeStyle=orthogonalEdgeStyle;curved=1;rounded=0;orthogonalLoop=1;jettySize=auto;html=1;endArrow=block;endFill=1;" parent="1" source="EpLoNu7SxfJ4iQwhgqlz-11" target="EpLoNu7SxfJ4iQwhgqlz-15" edge="1">
          <mxGeometry relative="1" as="geometry" />
        </mxCell>
        <mxCell id="EpLoNu7SxfJ4iQwhgqlz-11" value="Rebuttal R3: Unless The system uses only passwords for authentication" style="shape=note;whiteSpace=wrap;html=1;backgroundOutline=1;darkOpacity=0.05;size=17;fillColor=#FFF2CC;" parent="1" vertex="1">
          <mxGeometry x="440" y="360" width="160" height="80" as="geometry" />
        </mxCell>
        <mxCell id="EpLoNu7SxfJ4iQwhgqlz-20" style="edgeStyle=orthogonalEdgeStyle;curved=1;rounded=0;orthogonalLoop=1;jettySize=auto;html=1;exitX=0.5;exitY=1;exitDx=0;exitDy=0;entryX=0.663;entryY=0.025;entryDx=0;entryDy=0;entryPerimeter=0;endArrow=block;endFill=1;" parent="1" source="EpLoNu7SxfJ4iQwhgqlz-14" target="EpLoNu7SxfJ4iQwhgqlz-18" edge="1">
          <mxGeometry relative="1" as="geometry" />
        </mxCell>
        <mxCell id="EpLoNu7SxfJ4iQwhgqlz-21" style="edgeStyle=orthogonalEdgeStyle;curved=1;rounded=0;orthogonalLoop=1;jettySize=auto;html=1;entryX=0.5;entryY=0;entryDx=0;entryDy=0;endArrow=block;endFill=1;" parent="1" source="EpLoNu7SxfJ4iQwhgqlz-14" target="EpLoNu7SxfJ4iQwhgqlz-19" edge="1">
          <mxGeometry relative="1" as="geometry" />
        </mxCell>
        <mxCell id="EpLoNu7SxfJ4iQwhgqlz-14" value="&lt;b&gt;Sub-Claim C3:&lt;br&gt;&lt;/b&gt;Users credentials are hashed " style="rounded=0;whiteSpace=wrap;html=1;" parent="1" vertex="1">
          <mxGeometry x="220" y="480" width="155" height="60" as="geometry" />
        </mxCell>
        <mxCell id="EpLoNu7SxfJ4iQwhgqlz-27" style="edgeStyle=orthogonalEdgeStyle;curved=1;rounded=0;orthogonalLoop=1;jettySize=auto;html=1;entryX=0.5;entryY=0;entryDx=0;entryDy=0;endArrow=block;endFill=1;" parent="1" source="EpLoNu7SxfJ4iQwhgqlz-15" target="EpLoNu7SxfJ4iQwhgqlz-26" edge="1">
          <mxGeometry relative="1" as="geometry" />
        </mxCell>
        <mxCell id="EpLoNu7SxfJ4iQwhgqlz-15" value="&lt;b&gt;Sub-Claim C4:&lt;br&gt;&lt;/b&gt;Seafile uses 2FA for file sharing" style="rounded=0;whiteSpace=wrap;html=1;" parent="1" vertex="1">
          <mxGeometry x="500" y="480" width="140" height="60" as="geometry" />
        </mxCell>
        <mxCell id="EpLoNu7SxfJ4iQwhgqlz-23" style="edgeStyle=orthogonalEdgeStyle;curved=1;rounded=0;orthogonalLoop=1;jettySize=auto;html=1;entryX=0.5;entryY=0;entryDx=0;entryDy=0;endArrow=block;endFill=1;" parent="1" source="EpLoNu7SxfJ4iQwhgqlz-18" target="EpLoNu7SxfJ4iQwhgqlz-22" edge="1">
          <mxGeometry relative="1" as="geometry" />
        </mxCell>
        <mxCell id="EpLoNu7SxfJ4iQwhgqlz-18" value="&lt;b&gt;Evidence E1&lt;/b&gt;:&lt;br&gt;Seafile Penetration test report" style="ellipse;whiteSpace=wrap;html=1;aspect=fixed;fillColor=#ffffff;rounded=0;" parent="1" vertex="1">
          <mxGeometry x="120" y="614.38" width="100" height="100" as="geometry" />
        </mxCell>
        <mxCell id="EpLoNu7SxfJ4iQwhgqlz-25" style="edgeStyle=orthogonalEdgeStyle;curved=1;rounded=0;orthogonalLoop=1;jettySize=auto;html=1;entryX=0.5;entryY=0;entryDx=0;entryDy=0;endArrow=block;endFill=1;" parent="1" source="EpLoNu7SxfJ4iQwhgqlz-19" target="EpLoNu7SxfJ4iQwhgqlz-24" edge="1">
          <mxGeometry relative="1" as="geometry" />
        </mxCell>
        <mxCell id="EpLoNu7SxfJ4iQwhgqlz-19" value="&lt;b&gt;Evidence E2:&lt;/b&gt;&lt;br&gt;Seafile Documentation&amp;nbsp; on AES-256 with PBKDF2 hash function&lt;span style=&quot;color: rgb(0, 29, 53); font-family: &amp;quot;Google Sans&amp;quot;, Roboto, &amp;quot;Helvetica Neue&amp;quot;, sans-serif; font-size: 18px; font-style: normal; font-variant-ligatures: normal; font-variant-caps: normal; font-weight: 400; letter-spacing: normal; orphans: 2; text-align: start; text-indent: 0px; text-transform: none; widows: 2; word-spacing: 0px; -webkit-text-stroke-width: 0px; white-space: normal; background-color: rgb(255, 255, 255); text-decoration-thickness: initial; text-decoration-style: initial; text-decoration-color: initial; display: inline !important; float: none;&quot;&gt;&lt;span&gt;&lt;br&gt;&lt;/span&gt;&lt;/span&gt;" style="ellipse;whiteSpace=wrap;html=1;aspect=fixed;fillColor=#ffffff;rounded=0;" parent="1" vertex="1">
          <mxGeometry x="320" y="600" width="128.75" height="128.75" as="geometry" />
        </mxCell>
        <mxCell id="EpLoNu7SxfJ4iQwhgqlz-22" value="" style="ellipse;whiteSpace=wrap;html=1;aspect=fixed;fillColor=#CCCCCC;" parent="1" vertex="1">
          <mxGeometry x="155" y="760" width="30" height="30" as="geometry" />
        </mxCell>
        <mxCell id="EpLoNu7SxfJ4iQwhgqlz-24" value="" style="ellipse;whiteSpace=wrap;html=1;aspect=fixed;fillColor=#CCCCCC;" parent="1" vertex="1">
          <mxGeometry x="369.38" y="760" width="30" height="30" as="geometry" />
        </mxCell>
        <mxCell id="EpLoNu7SxfJ4iQwhgqlz-29" style="edgeStyle=orthogonalEdgeStyle;curved=1;rounded=0;orthogonalLoop=1;jettySize=auto;html=1;entryX=0.5;entryY=0;entryDx=0;entryDy=0;entryPerimeter=0;endArrow=block;endFill=1;" parent="1" source="EpLoNu7SxfJ4iQwhgqlz-26" target="EpLoNu7SxfJ4iQwhgqlz-28" edge="1">
          <mxGeometry relative="1" as="geometry" />
        </mxCell>
        <mxCell id="EpLoNu7SxfJ4iQwhgqlz-26" value="&lt;b&gt;Evidence E3:&lt;/b&gt;&lt;br&gt;2FA Code snippet " style="ellipse;whiteSpace=wrap;html=1;aspect=fixed;fillColor=#ffffff;rounded=0;" parent="1" vertex="1">
          <mxGeometry x="520" y="580" width="100" height="100" as="geometry" />
        </mxCell>
        <mxCell id="EpLoNu7SxfJ4iQwhgqlz-31" style="edgeStyle=orthogonalEdgeStyle;curved=1;rounded=0;orthogonalLoop=1;jettySize=auto;html=1;endArrow=block;endFill=1;" parent="1" source="EpLoNu7SxfJ4iQwhgqlz-28" target="EpLoNu7SxfJ4iQwhgqlz-30" edge="1">
          <mxGeometry relative="1" as="geometry" />
        </mxCell>
        <mxCell id="EpLoNu7SxfJ4iQwhgqlz-28" value="Undermine UM1: Unless the version does not support 2FA" style="shape=note;whiteSpace=wrap;html=1;backgroundOutline=1;darkOpacity=0.05;size=17;fillColor=#A9C4EB;" parent="1" vertex="1">
          <mxGeometry x="550" y="728.75" width="180" height="60" as="geometry" />
        </mxCell>
        <mxCell id="EpLoNu7SxfJ4iQwhgqlz-35" style="edgeStyle=orthogonalEdgeStyle;curved=1;rounded=0;orthogonalLoop=1;jettySize=auto;html=1;endArrow=block;endFill=1;" parent="1" source="EpLoNu7SxfJ4iQwhgqlz-30" target="EpLoNu7SxfJ4iQwhgqlz-33" edge="1">
          <mxGeometry relative="1" as="geometry" />
        </mxCell>
        <mxCell id="EpLoNu7SxfJ4iQwhgqlz-30" value="&lt;b&gt;Sub-Claim C5:&lt;br&gt;&lt;/b&gt;Latest Seafile version supports 2FA" style="rounded=0;whiteSpace=wrap;html=1;" parent="1" vertex="1">
          <mxGeometry x="570" y="820" width="140" height="60" as="geometry" />
        </mxCell>
        <mxCell id="EpLoNu7SxfJ4iQwhgqlz-32" style="edgeStyle=orthogonalEdgeStyle;curved=1;rounded=0;orthogonalLoop=1;jettySize=auto;html=1;entryX=0.5;entryY=0;entryDx=0;entryDy=0;endArrow=block;endFill=1;" parent="1" source="EpLoNu7SxfJ4iQwhgqlz-33" target="EpLoNu7SxfJ4iQwhgqlz-34" edge="1">
          <mxGeometry relative="1" as="geometry" />
        </mxCell>
        <mxCell id="EpLoNu7SxfJ4iQwhgqlz-33" value="&lt;b&gt;Evidence E4:&lt;/b&gt;&lt;br&gt;Installation report" style="ellipse;whiteSpace=wrap;html=1;aspect=fixed;fillColor=#ffffff;rounded=0;" parent="1" vertex="1">
          <mxGeometry x="630" y="910" width="100" height="100" as="geometry" />
        </mxCell>
        <mxCell id="EpLoNu7SxfJ4iQwhgqlz-34" value="" style="ellipse;whiteSpace=wrap;html=1;aspect=fixed;fillColor=#CCCCCC;" parent="1" vertex="1">
          <mxGeometry x="665" y="1050" width="30" height="30" as="geometry" />
        </mxCell>
        <mxCell id="zLbbnnOdTEt3tqEo0BU8-4" value="&lt;h1&gt;&amp;nbsp;&amp;nbsp;&amp;nbsp;&amp;nbsp; Seafile&lt;br&gt;&lt;/h1&gt;" style="text;html=1;strokeColor=none;fillColor=none;spacing=5;spacingTop=-20;whiteSpace=wrap;overflow=hidden;rounded=0;" vertex="1" parent="1">
          <mxGeometry x="720" y="10" width="130" height="40" as="geometry" />
        </mxCell>
      </root>
    </mxGraphModel>
  </diagram>
</mxfile>
